<mxfile host="app.diagrams.net" modified="2023-05-03T23:25:10.337Z" agent="Mozilla/5.0 (Macintosh; Intel Mac OS X 10_15_7) AppleWebKit/537.36 (KHTML, like Gecko) Chrome/112.0.0.0 Safari/537.36" version="21.2.6" etag="bvxkv6VCwPOqdCap2CAa" type="github">
  <diagram name="Page-1" id="HMeSJkny4wYuckMMA0fv">
    <mxGraphModel>
      <root>
        <mxCell id="0" />
        <mxCell id="1" parent="0" />
      </root>
    </mxGraphModel>
  </diagram>
</mxfile>
